<svg height="480pt" viewBox="0 0 480.08925 480" width="480pt" xmlns="http://www.w3.org/2000/svg"><path d="m184.09375 472.042969c20.488281-20.488281 32-48.277344 32-77.253907v-122.746093h48v122.746093c0 28.976563 11.511719 56.765626 32 77.253907h-40l-16-16-16 16zm0 0" fill="#bf5b00"/><path d="m388.695312 138.011719c10.320313-39.742188-3.742187-81.835938-35.882812-107.394531-32.136719-25.558594-76.316406-29.785157-112.71875-10.78125-36.394531-19.121094-80.648438-14.949219-112.828125 10.640624-32.179687 25.589844-46.210937 67.769532-35.769531 107.535157-29.417969 25.789062-41.863282 65.910156-32.207032 103.816406 9.65625 37.910156 39.777344 67.1875 77.945313 75.761719 38.167969 8.574218 77.917969-5.007813 102.859375-35.144532 24.929688 30.179688 64.703125 43.796876 102.898438 35.230469 38.195312-8.566406 68.34375-37.867187 77.992187-75.804687 9.652344-37.9375-2.828125-78.082032-32.289063-103.859375zm0 0" fill="#2cb357"/><g fill="#ffbc05"><path d="m472.09375 272.042969c0 39.765625-32.234375 72-72 72s-72-32.234375-72-72c0-39.761719 32.234375-72 72-72s72 32.238281 72 72zm0 0"/><path d="m152.09375 272.042969c0 39.765625-32.234375 72-72 72s-72-32.234375-72-72c0-39.761719 32.234375-72 72-72s72 32.238281 72 72zm0 0"/><path d="m312.09375 128.042969c0 39.765625-32.234375 72-72 72s-72-32.234375-72-72c0-39.761719 32.234375-72 72-72s72 32.238281 72 72zm0 0"/></g><path d="m430.550781 198.101562c-3.875-23.96875-15.457031-46.015624-32.992187-62.808593 1.664062-7.636719 2.515625-15.429688 2.535156-23.25-.066406-61.828125-50.171875-111.933594-112-112.0000002-16.613281-.0351563-33.019531 3.6757812-48 10.8593752-14.980469-7.183594-31.386719-10.8945315-48-10.8593752-61.828125.0664062-111.933594 50.1718752-112 112.0000002.019531 7.820312.871094 15.613281 2.535156 23.25-17.53125 16.792969-29.113281 38.839843-32.992187 62.808593-30.378907 12.449219-50.0625 42.203126-49.6289065 75.035157.4296875 32.828125 20.8906255 62.054687 51.5859375 73.699219 30.699219 11.644531 65.394531 3.339843 87.492188-20.941407 23.34375 4.71875 47.589843 1.632813 69.007812-8.785156v77.679687c.074219 26.871094-10.605469 52.652344-29.65625 71.601563-2.285156 2.285156-2.972656 5.726563-1.734375 8.714844s4.15625 4.9375 7.390625 4.9375h40c2.121094 0 4.15625-.839844 5.65625-2.34375l10.34375-10.34375 10.34375 10.34375c1.5 1.503906 3.535156 2.34375 5.65625 2.34375h40c3.234375 0 6.152344-1.949219 7.390625-4.9375s.554687-6.429688-1.734375-8.714844c-19.050781-18.949219-29.730469-44.730469-29.65625-71.601563v-77.679687c21.414062 10.421875 45.664062 13.515625 69.007812 8.800781 22.109376 24.230469 56.777344 32.496094 87.4375 20.847656 30.664063-11.648437 51.097657-40.847656 51.542969-73.644531.441407-32.800781-19.195312-62.539062-49.53125-75.011719zm-350.457031 137.941407c-35.347656 0-64-28.652344-64-64 0-35.34375 28.652344-64 64-64s64 28.65625 64 64c-.039062 35.332031-28.667969 63.960937-64 64zm198.609375 128h-19.296875l-13.65625-13.652344c-3.125-3.125-8.1875-3.125-11.3125 0l-13.65625 13.652344h-19.296875c14.753906-20.070313 22.679687-44.34375 22.609375-69.253907v-86.902343c5.738281-3.976563 11.09375-8.476563 16-13.441407 4.902344 4.980469 10.261719 9.492188 16 13.480469v86.863281c-.070312 24.910157 7.855469 49.183594 22.609375 69.253907zm41.390625-152c-28.554688.027343-55.632812-12.691407-73.847656-34.6875-1.570313-1.742188-3.804688-2.742188-6.152344-2.742188s-4.582031 1-6.152344 2.742188c-18.214844 21.996093-45.289062 34.714843-73.847656 34.6875-3.492188-.011719-6.984375-.214844-10.457031-.605469 15.40625-26.789062 13.933593-60.070312-3.78125-85.390625-17.714844-25.324219-48.472657-38.117187-78.921875-32.824219 4.683594-19.0625 15.101562-36.226562 29.847656-49.179687 2.261719-1.988281 3.214844-5.082031 2.464844-8-7.582032-28.746094-1.359375-59.382813 16.832031-82.894531 18.191406-23.511719 46.285156-37.226563 76.015625-37.105469 15.433594-.027344 30.636719 3.710937 44.296875 10.890625 2.320313 1.210937 5.085937 1.210937 7.40625 0 13.660156-7.179688 28.867187-10.917969 44.296875-10.890625 29.730469-.121094 57.824219 13.59375 76.015625 37.105469 18.195313 23.511718 24.414063 54.148437 16.832031 82.894531-.75 2.917969.203125 6.011719 2.464844 8 14.75 12.960937 25.164062 30.132812 29.839844 49.203125-30.402344-5.140625-61.042969 7.683594-78.71875 32.949218-17.675782 25.261719-19.222656 58.441407-3.976563 85.242188-3.472656.390625-6.964843.59375-10.457031.605469zm80 24c-35.347656 0-64-28.652344-64-64 0-35.34375 28.652344-64 64-64s64 28.65625 64 64c-.039062 35.332031-28.667969 63.960937-64 64zm0 0"/><path d="m80.09375 248.042969c4.417969 0 8 3.582031 8 8h16c-.042969-10.132813-6.445312-19.148438-16-22.527344v-9.472656h-16v9.472656c-11.011719 3.878906-17.621094 15.136719-15.644531 26.644531 1.980469 11.503906 11.96875 19.90625 23.644531 19.882813 4.417969 0 8 3.582031 8 8 0 4.421875-3.582031 8-8 8s-8-3.578125-8-8h-16c.042969 10.136719 6.445312 19.152343 16 22.53125v9.46875h16v-9.46875c11.011719-3.878907 17.621094-15.136719 15.644531-26.644531-1.980469-11.503907-11.96875-19.90625-23.644531-19.886719-4.417969 0-8-3.578125-8-8 0-4.417969 3.582031-8 8-8zm0 0"/><path d="m400.09375 248.042969c4.417969 0 8 3.582031 8 8h16c-.042969-10.132813-6.445312-19.148438-16-22.527344v-9.472656h-16v9.472656c-11.011719 3.878906-17.621094 15.136719-15.644531 26.644531 1.980469 11.503906 11.96875 19.90625 23.644531 19.882813 4.417969 0 8 3.582031 8 8 0 4.421875-3.582031 8-8 8s-8-3.578125-8-8h-16c.042969 10.136719 6.445312 19.152343 16 22.53125v9.46875h16v-9.46875c11.011719-3.878907 17.621094-15.136719 15.644531-26.644531-1.980469-11.503907-11.96875-19.90625-23.644531-19.886719-4.417969 0-8-3.578125-8-8 0-4.417969 3.582031-8 8-8zm0 0"/><path d="m240.09375 48.042969c-44.183594 0-80 35.820312-80 80 0 44.183593 35.816406 80 80 80s80-35.816407 80-80c-.046875-44.160157-35.835938-79.949219-80-80zm0 144c-35.347656 0-64-28.652344-64-64 0-35.34375 28.652344-64 64-64s64 28.65625 64 64c-.039062 35.332031-28.667969 63.960937-64 64zm0 0"/><path d="m240.09375 104.042969c4.417969 0 8 3.582031 8 8h16c-.042969-10.132813-6.445312-19.148438-16-22.527344v-9.472656h-16v9.472656c-11.011719 3.878906-17.621094 15.136719-15.644531 26.644531 1.980469 11.503906 11.96875 19.90625 23.644531 19.882813 4.417969 0 8 3.582031 8 8 0 4.421875-3.582031 8-8 8s-8-3.578125-8-8h-16c.042969 10.136719 6.445312 19.152343 16 22.53125v9.46875h16v-9.46875c11.011719-3.878907 17.621094-15.136719 15.644531-26.644531-1.980469-11.503907-11.96875-19.90625-23.644531-19.886719-4.417969 0-8-3.578125-8-8 0-4.417969 3.582031-8 8-8zm0 0"/></svg>